<svg width="109" height="64" viewBox="0 0 109 64" fill="none" xmlns="http://www.w3.org/2000/svg">
<g clip-path="url(#clip0_12217_878)">
<path d="M35.6819 32.8627C35.0551 33.192 34.4283 33.4554 33.7684 33.6859C35.253 34.2128 36.8696 34.542 38.5191 34.6408H40.3336C42.0821 34.542 43.7316 34.1799 45.2822 33.6201C45.777 33.4554 46.2389 33.2249 46.7008 33.0273C47.0637 32.8627 47.4266 32.6651 47.7896 32.4675C47.8225 32.4675 47.8225 32.4346 47.8555 32.4346C48.6471 31.9736 49.4062 31.4468 50.0989 30.854L52.3749 28.582L55.7404 25.2233L57.6206 23.3463L55.7404 21.4694L52.4083 18.1436L50.1319 15.8716C49.4391 15.2788 48.68 14.752 47.8884 14.291C47.8555 14.291 47.8555 14.2581 47.8225 14.2581C47.4596 14.0605 47.0967 13.8629 46.7337 13.6983C46.2719 13.4678 45.81 13.2702 45.3151 13.1056C43.7646 12.5128 42.0821 12.1835 40.3666 12.0847H38.5521C36.9026 12.1835 35.286 12.5128 33.8014 13.0397C34.4612 13.2702 35.0881 13.5336 35.7149 13.8629C37.6284 14.8178 39.3109 16.1021 40.7294 17.6826C40.7624 17.7156 40.7624 17.7156 40.7954 17.7485L46.4368 23.3793L40.7954 29.0101C40.7624 29.043 40.7624 29.043 40.7294 29.0759C39.2779 30.5906 37.5954 31.9078 35.6819 32.8627Z" fill="#D9D9D9"/>
<path d="M35.6819 32.8627C35.0551 33.192 34.4283 33.4554 33.7684 33.6859C35.253 34.2128 36.8696 34.542 38.5191 34.6408H40.3336C42.0821 34.542 43.7316 34.1799 45.2822 33.6201C45.777 33.4554 46.2389 33.2249 46.7008 33.0273C47.0637 32.8627 47.4266 32.6651 47.7896 32.4675C47.8225 32.4675 47.8225 32.4346 47.8555 32.4346C48.6471 31.9736 49.4062 31.4468 50.0989 30.854L52.3749 28.582L55.7404 25.2233L57.6206 23.3463L55.7404 21.4694L52.4083 18.1436L50.1319 15.8716C49.4391 15.2788 48.68 14.752 47.8884 14.291C47.8555 14.291 47.8555 14.2581 47.8225 14.2581C47.4596 14.0605 47.0967 13.8629 46.7337 13.6983C46.2719 13.4678 45.81 13.2702 45.3151 13.1056C43.7646 12.5128 42.0821 12.1835 40.3666 12.0847H38.5521C36.9026 12.1835 35.286 12.5128 33.8014 13.0397C34.4612 13.2702 35.0881 13.5336 35.7149 13.8629C37.6284 14.8178 39.3109 16.1021 40.7294 17.6826C40.7624 17.7156 40.7624 17.7156 40.7954 17.7485L46.4368 23.3793L40.7954 29.0101C40.7624 29.043 40.7624 29.043 40.7294 29.0759C39.2779 30.5906 37.5954 31.9078 35.6819 32.8627Z" fill="url(#paint0_linear_12217_878)"/>
<path d="M81.3408 24.2683C81.2749 24.2683 81.209 24.2683 81.1427 24.2683H70.1242C65.7031 24.2683 61.7112 25.9477 58.7091 28.7466L57.2577 30.1955C57.0595 30.393 56.8948 30.5906 56.6967 30.7553L46.4368 40.9961C46.4038 41.029 46.4038 41.029 46.3708 41.0619C45.4471 42.0827 44.3914 43.0047 43.2367 43.795C43.1707 43.8279 43.0718 43.8608 43.0058 43.9267C41.4222 44.6511 39.3768 44.223 38.0902 43.2352C37.1994 42.5766 36.9685 41.6217 37.2654 40.5679C37.5623 39.5472 38.2221 38.9215 39.3438 38.8227C39.6407 38.7898 39.9706 38.724 40.2676 38.6911C40.2016 37.2093 37.8592 36.5836 36.5066 36.847C34.1643 37.341 33.2736 39.2179 33.9993 42.2144C32.4818 41.951 31.0632 42.1815 29.7435 43.0047C28.193 43.9925 27.3682 45.4085 27.6322 46.6598C27.7641 46.6268 27.8961 46.5939 28.028 46.528C30.0735 45.6719 32.2178 45.3097 34.4612 45.606C36.0118 45.8036 37.5293 45.9683 39.0799 46.1329C39.7067 46.1988 40.3665 46.2646 40.9934 46.3305C41.3562 46.3634 41.7521 46.3963 42.148 46.3963C43.1048 46.561 44.0615 46.6598 45.0842 46.6598C47.1296 46.6598 49.1092 46.2975 50.9234 45.606C51.8143 45.2768 52.6389 44.8816 53.4639 44.4206C53.5298 44.3877 53.5957 44.3548 53.6616 44.3218C54.4536 43.8608 55.2123 43.301 55.9051 42.7083L66.1653 32.4675C66.363 32.27 66.5611 32.0395 66.7922 31.8419L69.2004 29.4381C69.3981 29.2406 69.5633 29.043 69.7609 28.8783C71.4434 27.2648 73.4893 26.0135 75.7323 25.1904C77.4811 24.5976 79.3613 24.2683 81.3408 24.2683Z" fill="#0088FF"/>
<path d="M81.3408 22.3914C81.2749 22.3914 81.209 22.3914 81.1427 22.3914H70.1242C65.7031 22.3914 61.7112 20.712 58.7091 17.9131L57.2577 16.4643C57.0595 16.2667 56.8948 16.0691 56.6967 15.9045L46.4368 5.66369C46.4038 5.63076 46.4038 5.63076 46.3708 5.59783C45.4471 4.57707 44.3914 3.65505 43.2367 2.86477C43.1707 2.83184 43.0718 2.79893 43.0058 2.73307C41.4222 2.00864 39.3768 2.4367 38.0902 3.42456C37.1994 4.08313 36.9685 5.03808 37.2654 6.09177C37.5623 7.11258 38.2221 7.73819 39.3438 7.83697C39.6407 7.8699 39.9706 7.93576 40.2676 7.96869C40.2016 9.45046 37.8592 10.0761 36.5066 9.81273C34.1643 9.31879 33.2736 7.44187 33.9993 4.44535C32.4818 4.70878 31.0632 4.47828 29.7435 3.65506C28.193 2.6672 27.3682 1.25128 27.6322 0C27.7641 0.0329285 27.8961 0.0658452 28.028 0.131702C30.0735 0.987845 32.2178 1.35006 34.4612 1.0537C36.0118 0.856128 37.5293 0.691491 39.0799 0.526849C39.7067 0.460992 40.3665 0.395143 40.9934 0.329286C41.3562 0.296357 41.7521 0.263425 42.148 0.263425C43.1048 0.0987816 44.0615 0 45.0842 0C47.1296 0 49.1092 0.362198 50.9234 1.0537C51.8143 1.38298 52.6389 1.77814 53.4639 2.23914C53.5298 2.27207 53.5957 2.30499 53.6616 2.33792C54.4536 2.79892 55.2123 3.35871 55.9051 3.95143L66.1653 14.1922C66.363 14.3898 66.5611 14.6203 66.7922 14.8178L69.2004 17.2216C69.3981 17.4192 69.5633 17.6168 69.7609 17.7814C71.4434 19.3949 73.4893 20.6462 75.7323 21.4694C77.4811 22.0621 79.3613 22.3914 81.3408 22.3914Z" fill="#0088FF"/>
<path d="M0 63.7731V53.536H2.30408V63.7731H0ZM6.74912 63.7731L3.20125 58.9905H1.77394L6.07626 53.536H8.70658L4.85286 58.4206L4.83248 57.4237L9.5222 63.7527H6.74912V63.7731Z" fill="#1A1A1A"/>
<path d="M10.0931 63.7731V53.536H12.3361V59.4385H11.9894C11.9894 58.6651 12.0914 58.0136 12.2749 57.4847C12.4788 56.9552 12.7643 56.5483 13.1517 56.2633C13.5391 55.9783 14.0081 55.8563 14.5994 55.8563H14.7013C15.5577 55.8563 16.2102 56.1618 16.6588 56.7517C17.1074 57.3622 17.3316 58.2376 17.3316 59.3975V63.7731H15.0888V59.255C15.0888 58.8276 14.9664 58.5021 14.7217 58.2376C14.4771 57.9731 14.1508 57.8506 13.743 57.8506C13.3148 57.8506 12.9885 57.9931 12.7235 58.2576C12.4584 58.5226 12.3361 58.8886 12.3361 59.3365V63.7731H10.0931Z" fill="#1A1A1A"/>
<path d="M21.0831 63.9562C20.5326 63.9562 20.0432 63.8547 19.6354 63.6717C19.2276 63.4677 18.9014 63.1832 18.6567 62.8168C18.4324 62.4503 18.3101 62.0028 18.3101 61.4939C18.3101 60.9239 18.4528 60.4764 18.7382 60.11C19.0237 59.7435 19.4315 59.479 19.9617 59.3161C20.4918 59.1535 21.0831 59.0516 21.7764 59.0516H23.428V60.293H21.7764C21.389 60.293 21.0831 60.3949 20.8792 60.5779C20.6753 60.7609 20.5734 61.0259 20.5734 61.3514C20.5734 61.6568 20.6753 61.9008 20.8792 62.1043C21.0831 62.2873 21.389 62.3893 21.7764 62.3893C22.0211 62.3893 22.2658 62.3488 22.4492 62.2468C22.6532 62.1653 22.8163 62.0028 22.9386 61.7989C23.0609 61.5754 23.1425 61.2904 23.1629 60.9034L23.6931 61.4734C23.6523 62.0028 23.5095 62.4503 23.3056 62.8168C23.1018 63.1832 22.7959 63.4677 22.4289 63.6512C22.0618 63.8752 21.6132 63.9562 21.0831 63.9562ZM23.5299 63.7732V61.4939H23.1425V59.0311C23.1425 58.6446 23.0406 58.3391 22.8571 58.1561C22.6735 57.9527 22.3677 57.8712 21.9599 57.8712C21.756 57.8712 21.4909 57.8712 21.1443 57.8917C20.7977 57.8917 20.451 57.9117 20.1044 57.9322C19.7578 57.9527 19.4315 57.9731 19.1257 57.9932V56.1008C19.35 56.0803 19.5946 56.0598 19.8801 56.0393C20.1655 56.0193 20.4714 55.9988 20.7772 55.9988C21.0831 55.9988 21.3686 55.9783 21.654 55.9783C22.4492 55.9783 23.1018 56.1008 23.6319 56.3243C24.162 56.5483 24.5698 56.8943 24.8553 57.3422C25.1408 57.7897 25.2835 58.3801 25.2835 59.0921V63.7937H23.5299V63.7732Z" fill="#1A1A1A"/>
<path d="M25.957 57.7287V56.0803H31.4624V57.7287H25.957ZM30.3817 63.8751C29.6069 63.8751 28.9747 63.7732 28.5058 63.5902C28.0368 63.4067 27.6698 63.0812 27.4659 62.6132C27.2416 62.1653 27.1397 61.5548 27.1397 60.7609V54.0045H29.2398V60.8424C29.2398 61.2089 29.3418 61.4938 29.5253 61.6768C29.7088 61.8603 29.9943 61.9618 30.3409 61.9618H31.4828V63.8546H30.3817V63.8751Z" fill="#1A1A1A"/>
<path d="M35.2137 63.9971C34.3165 63.9971 33.6437 63.7122 33.1543 63.1422C32.6854 62.5723 32.4407 61.6973 32.4407 60.5374V56.0803H34.6836V60.6594C34.6836 61.0664 34.8059 61.3919 35.0302 61.6363C35.2545 61.8803 35.5808 62.0028 35.9682 62.0028C36.3759 62.0028 36.7022 61.8803 36.9469 61.6158C37.1916 61.3718 37.3343 61.0259 37.3343 60.5984V56.0803H39.5772V63.7527H37.8033V60.5169H37.9664C37.9664 61.2904 37.8644 61.9413 37.6605 62.4503C37.4566 62.9592 37.1712 63.3457 36.7634 63.6102C36.3759 63.8546 35.8866 63.9971 35.2953 63.9971H35.2137Z" fill="#1A1A1A"/>
<path d="M40.5153 55.1849V53.536H43.6961V55.1849H40.5153ZM41.4328 63.7731V53.536H43.6961V63.7731H41.4328Z" fill="#1A1A1A"/>
<path d="M44.7358 57.7492V56.1008H47.9982V57.7492H44.7358ZM46.6321 55.3274C46.2039 55.3274 45.8981 55.2254 45.6942 55.0014C45.4903 54.7779 45.3884 54.5129 45.3884 54.167C45.3884 53.821 45.4903 53.5365 45.6942 53.3125C45.8981 53.0886 46.2039 52.9866 46.6321 52.9866C47.0603 52.9866 47.3662 53.0886 47.5701 53.3125C47.7738 53.5365 47.876 53.821 47.876 54.167C47.876 54.5129 47.7738 54.7779 47.5701 55.0014C47.3662 55.2254 47.0603 55.3274 46.6321 55.3274ZM45.7758 63.7732V56.1008H48.0187V63.7732H45.7758Z" fill="#1A1A1A"/>
<path d="M52.6676 63.9971C51.5666 63.9971 50.7101 63.7732 50.0985 63.3257C49.4869 62.8777 49.1603 62.2468 49.1198 61.4329H51.1178C51.1589 61.6769 51.3017 61.9008 51.5666 62.0838C51.8316 62.2673 52.2188 62.3688 52.7287 62.3688C53.1164 62.3688 53.4425 62.3078 53.7075 62.1653C53.9725 62.0228 54.0947 61.8398 54.0947 61.5753C54.0947 61.3514 53.993 61.1684 53.8097 61.0259C53.6058 60.8834 53.2587 60.8019 52.7493 60.7409L52.1377 60.6799C51.22 60.5779 50.5062 60.3339 50.0574 59.9065C49.5886 59.479 49.3642 58.9501 49.3642 58.2986C49.3642 57.7492 49.507 57.3012 49.7724 56.9352C50.0374 56.5688 50.4246 56.3043 50.8934 56.1008C51.3828 55.9173 51.9338 55.8158 52.5454 55.8158C53.5442 55.8158 54.3396 56.0393 54.9512 56.4668C55.5628 56.8942 55.8689 57.5252 55.9095 58.3596H53.9114C53.8708 58.1156 53.7481 57.8917 53.5242 57.7287C53.2998 57.5657 52.9737 57.4642 52.5249 57.4642C52.1782 57.4642 51.8927 57.5252 51.6889 57.6677C51.485 57.7897 51.3828 57.9731 51.3828 58.1966C51.3828 58.4206 51.4645 58.5836 51.6483 58.6851C51.8316 58.8076 52.1171 58.8686 52.5249 58.9296L53.1365 58.9906C54.0746 59.0926 54.8085 59.357 55.3389 59.7845C55.8689 60.2115 56.1338 60.7609 56.1338 61.4734C56.1338 61.9823 55.9911 62.4298 55.7056 62.8168C55.4201 63.2032 55.0329 63.4882 54.5029 63.6917C53.9725 63.9157 53.3609 63.9971 52.6676 63.9971Z" fill="#1A1A1A"/>
<path d="M56.2771 57.7287V56.0803H61.7825V57.7287H56.2771ZM60.7016 63.8751C59.9271 63.8751 59.295 63.7732 58.8257 63.5902C58.3568 63.4067 57.9897 63.0812 57.7858 62.6132C57.5619 62.1653 57.4597 61.5548 57.4597 60.7609V54.0045H59.56V60.8424C59.56 61.2089 59.6617 61.4938 59.8455 61.6768C60.0288 61.8603 60.3144 61.9618 60.661 61.9618H61.803V63.8546H60.7016V63.8751Z" fill="#1A1A1A"/>
<path d="M62.2924 57.7492V56.1008H65.5547V57.7492H62.2924ZM64.1888 55.3274C63.7605 55.3274 63.4545 55.2254 63.2506 55.0014C63.0467 54.7779 62.9445 54.5129 62.9445 54.167C62.9445 53.821 63.0467 53.5365 63.2506 53.3125C63.4545 53.0886 63.7605 52.9866 64.1888 52.9866C64.6166 52.9866 64.9226 53.0886 65.1265 53.3125C65.3303 53.5365 65.4325 53.821 65.4325 54.167C65.4325 54.5129 65.3303 54.7779 65.1265 55.0014C64.9226 55.2254 64.5965 55.3274 64.1888 55.3274ZM63.3117 63.7732V56.1008H65.5547V63.7732H63.3117Z" fill="#1A1A1A"/>
<path d="M68.5721 63.7732L66.5129 56.1008H68.6944L70.6113 63.7732H68.5721ZM69.5714 63.7732L69.5509 61.9008H71.1007L71.1212 63.7732H69.5714ZM70.1014 63.7732L71.5084 56.3448H73.9758L75.6068 63.7732H73.8737L72.2017 56.4058H73.2009L71.6918 63.7732H70.1014ZM74.4447 63.7732L74.4647 61.9008H76.0145V63.7732H74.4447ZM75.0768 63.7732L76.7894 56.1008H78.8491L76.9933 63.7732H75.0768Z" fill="#1A1A1A"/>
<path d="M81.9682 63.9562C81.4177 63.9562 80.9283 63.8547 80.5206 63.6717C80.1128 63.4677 79.7867 63.1832 79.5418 62.8168C79.3179 62.4503 79.1952 62.0028 79.1952 61.4939C79.1952 60.9239 79.3379 60.4764 79.6235 60.11C79.909 59.7435 80.3167 59.479 80.8471 59.3161C81.3771 59.1535 81.9682 59.0516 82.6619 59.0516H84.3134V60.293H82.6619C82.2742 60.293 81.9682 60.3949 81.7643 60.5779C81.5604 60.7609 81.4587 61.0259 81.4587 61.3514C81.4587 61.6568 81.5604 61.9008 81.7643 62.1043C81.9682 62.2873 82.2742 62.3893 82.6619 62.3893C82.9063 62.3893 83.1508 62.3488 83.3346 62.2468C83.5385 62.1653 83.7018 62.0028 83.824 61.7989C83.9462 61.5754 84.0279 61.2904 84.0484 60.9034L84.5783 61.4734C84.5378 62.0028 84.395 62.4503 84.1911 62.8168C83.9868 63.1832 83.6812 63.4677 83.3141 63.6512C82.9469 63.8752 82.4986 63.9562 81.9682 63.9562ZM84.4151 63.7732V61.4939H84.0279V59.0311C84.0279 58.6446 83.9257 58.3391 83.7423 58.1561C83.559 57.9527 83.253 57.8712 82.8452 57.8712C82.6414 57.8712 82.3764 57.8712 82.0298 57.8917C81.6831 57.8917 81.3365 57.9117 80.9899 57.9322C80.6433 57.9527 80.3167 57.9731 80.0111 57.9932V56.1008C80.2351 56.0803 80.48 56.0598 80.7655 56.0393C81.051 56.0193 81.3566 55.9988 81.6626 55.9988C81.9682 55.9988 82.2537 55.9783 82.5392 55.9783C83.3346 55.9783 83.9868 56.1008 84.5172 56.3243C85.0472 56.5483 85.4549 56.8943 85.7404 57.3422C86.026 57.7897 86.1687 58.3801 86.1687 59.0921V63.7937H84.4151V63.7732Z" fill="#1A1A1A"/>
<path d="M89.7372 63.7731L93.4278 53.536H95.7525L99.5653 63.7731H98.1383L94.6921 54.4319L95.3648 54.7779H93.7133L94.4271 54.4319L91.1036 63.7731H89.7372ZM91.9396 60.7204L92.4085 59.479H96.8329L97.3022 60.7204H91.9396Z" fill="#1A1A1A"/>
<path d="M100.116 57.3422V56.2838H102.624V57.3422H100.116ZM101.645 55.0829C101.339 55.0829 101.115 55.0014 100.972 54.8389C100.83 54.6759 100.748 54.4724 100.748 54.2285C100.748 53.984 100.83 53.7805 100.972 53.6175C101.115 53.455 101.339 53.3735 101.645 53.3735C101.951 53.3735 102.175 53.455 102.318 53.6175C102.461 53.7805 102.542 53.984 102.542 54.2285C102.542 54.4724 102.461 54.6759 102.318 54.8389C102.155 55.0014 101.93 55.0829 101.645 55.0829ZM101.258 63.7732V56.2838H102.603V63.7732H101.258Z" fill="#1A1A1A"/>
<path d="M104.867 63.7732V56.2838H105.927V59.377H105.866C105.866 58.2781 106.111 57.4847 106.579 56.9757C107.069 56.4668 107.783 56.2023 108.741 56.2023H108.986V57.4032H108.517C107.762 57.4032 107.191 57.6067 106.784 57.9932C106.376 58.4001 106.172 58.9701 106.172 59.703V63.7527H104.867V63.7732Z" fill="#1A1A1A"/>
</g>
<defs>
<linearGradient id="paint0_linear_12217_878" x1="33.7684" y1="23.3628" x2="57.6206" y2="23.3628" gradientUnits="userSpaceOnUse">
<stop offset="0.2" stop-color="#FFE259"/>
<stop offset="0.8" stop-color="#FFA751"/>
</linearGradient>
<clipPath id="clip0_12217_878">
<rect width="109" height="64" fill="white"/>
</clipPath>
</defs>
</svg>
